<?xml version="1.0" encoding="UTF-8" standalone="no"?>
<!-- Created with Inkscape (http://www.inkscape.org/) -->

<svg
   xmlns:dc="http://purl.org/dc/elements/1.1/"
   xmlns:cc="http://creativecommons.org/ns#"
   xmlns:rdf="http://www.w3.org/1999/02/22-rdf-syntax-ns#"
   xmlns:svg="http://www.w3.org/2000/svg"
   xmlns="http://www.w3.org/2000/svg"
   xmlns:sodipodi="http://sodipodi.sourceforge.net/DTD/sodipodi-0.dtd"
   xmlns:inkscape="http://www.inkscape.org/namespaces/inkscape"
   width="795.2326"
   height="322.39267"
   viewBox="0 0 210.40529 85.299721"
   version="1.1"
   id="svg132"
   inkscape:version="0.92.4 (5da689c313, 2019-01-14)"
   sodipodi:docname="Logo_Inverted_White_blue_800x350.svg">
  <defs
     id="defs126">
    <clipPath
       clipPathUnits="userSpaceOnUse"
       id="clipPath3751">
      <path
         d="M 0,1314 H 1746 V 0 H 0 Z"
         id="path3749"
         inkscape:connector-curvature="0" />
    </clipPath>
  </defs>
  <sodipodi:namedview
     id="base"
     pagecolor="#ffffff"
     bordercolor="#666666"
     borderopacity="1.0"
     inkscape:pageopacity="0.0"
     inkscape:pageshadow="2"
     inkscape:zoom="0.59953337"
     inkscape:cx="297.33107"
     inkscape:cy="438.57722"
     inkscape:document-units="px"
     inkscape:current-layer="g3737"
     showgrid="false"
     units="px"
     fit-margin-top="0"
     fit-margin-left="0"
     fit-margin-right="0"
     fit-margin-bottom="0"
     inkscape:window-width="2654"
     inkscape:window-height="1058"
     inkscape:window-x="566"
     inkscape:window-y="322"
     inkscape:window-maximized="0" />
  <metadata
     id="metadata129">
    <rdf:RDF>
      <cc:Work
         rdf:about="">
        <dc:format>image/svg+xml</dc:format>
        <dc:type
           rdf:resource="http://purl.org/dc/dcmitype/StillImage" />
        <dc:title></dc:title>
      </cc:Work>
    </rdf:RDF>
  </metadata>
  <g
     inkscape:label="Layer 1"
     inkscape:groupmode="layer"
     id="layer1"
     transform="translate(-0.55050709,-244.01522)">
    <g
       id="g3987"
       transform="matrix(0.68633336,0,0,0.68633336,-213.33058,1153.7002)">
      <g
         transform="matrix(0.35277777,0,0,-0.35277777,396.67674,-1279.236)"
         id="g3733"
         style="fill:#2a3783;fill-opacity:1">
        <path
           inkscape:connector-curvature="0"
           id="path3735"
           style="fill:#ffffff;fill-opacity:1;fill-rule:nonzero;stroke:none"
           d="M 0,0 -70.974,-2.869 170.726,130.936 363.105,24.059 V -10.642 L 170.865,92.488 Z" />
      </g>
      <g
         transform="matrix(0.35277777,0,0,-0.35277777,457.36205,-1308.3871)"
         id="g3737">
        <path
           inkscape:connector-curvature="0"
           id="path3739"
           style="fill:#2a3783;fill-opacity:1;fill-rule:nonzero;stroke:none"
           d="M 0,0 V -45.712 L 128.345,-69.817 Z" />
      </g>
      <g
         transform="matrix(0.35277777,0,0,-0.35277777,487.63914,-1243.1966)"
         id="g3741"
         style="fill:#ffffff;fill-opacity:1">
        <path
           inkscape:connector-curvature="0"
           id="path3743"
           style="fill:#ffffff;fill-opacity:1;fill-rule:nonzero;stroke:none"
           d="M 0,0 H 32.247 V 44.84 Z M 57.243,0 H 82.048 V -24.805 H 57.243 V -74.606 H 32.247 v 49.801 h -87.009 l 112.005,136.81 z" />
      </g>
      <g
         id="g3745"
         transform="matrix(0.35277777,0,0,-0.35277777,156.93577,-893.27464)">
        <g
           clip-path="url(#clipPath3751)"
           id="g3747">
          <g
             transform="translate(1307.5004,1011.3168)"
             id="g3753">
            <path
               inkscape:connector-curvature="0"
               id="path3755"
               style="fill:#2a3783;fill-opacity:1;fill-rule:nonzero;stroke:none"
               d="m 0,0 c 0,-76.556 -62.061,-138.616 -138.617,-138.616 -76.555,0 -138.616,62.06 -138.616,138.616 0,76.556 62.061,138.617 138.616,138.617 C -62.061,138.617 0,76.556 0,0" />
          </g>
          <g
             transform="translate(1125.7802,1069.9218)"
             id="g3757">
            <path
               inkscape:connector-curvature="0"
               id="path3759"
               style="fill:#ffffff;fill-opacity:1;fill-rule:nonzero;stroke:none"
               d="m 0,0 c -4.514,0 -8.373,-1.603 -11.578,-4.809 -3.089,-3.206 -4.631,-7.008 -4.631,-11.4 0,-4.514 1.542,-8.372 4.631,-11.578 3.205,-3.206 7.064,-4.809 11.578,-4.809 4.511,0 8.31,1.603 11.399,4.809 3.207,3.206 4.809,7.064 4.809,11.578 0,4.392 -1.602,8.194 -4.809,11.4 C 8.31,-1.603 4.511,0 0,0 m 0,-126.645 c 9.619,0 17.812,3.443 24.581,10.332 6.768,6.768 10.152,14.962 10.152,24.58 0,9.619 -3.384,17.812 -10.152,24.581 -6.769,6.769 -14.962,10.153 -24.581,10.153 -9.618,0 -17.812,-3.384 -24.581,-10.153 -6.888,-6.769 -10.331,-14.962 -10.331,-24.581 0,-9.618 3.443,-17.812 10.331,-24.58 6.769,-6.889 14.963,-10.332 24.581,-10.332 m 30.993,84.074 c 18.049,-11.4 27.074,-27.787 27.074,-49.162 0,-16.03 -5.7,-29.746 -17.1,-41.146 C 29.685,-144.162 16.031,-149.801 0,-149.801 c -16.031,0 -29.747,5.639 -41.146,16.922 -11.283,11.4 -16.922,25.116 -16.922,41.146 0,21.375 9.023,37.762 27.074,49.162 -6.412,7.598 -9.618,16.387 -9.618,26.362 0,11.161 3.977,20.721 11.934,28.677 7.837,7.955 17.395,11.934 28.678,11.934 11.161,0 20.721,-3.979 28.678,-11.934 7.954,-7.956 11.933,-17.516 11.933,-28.677 0,-9.975 -3.206,-18.764 -9.618,-26.362" />
          </g>
          <g
             transform="translate(1233.075,1070.9904)"
             id="g3761">
            <path
               inkscape:connector-curvature="0"
               id="path3763"
               style="fill:#ffffff;fill-opacity:1;fill-rule:nonzero;stroke:none"
               d="m 0,0 c -9.619,0 -17.812,-3.384 -24.581,-10.153 -6.888,-6.768 -10.331,-14.962 -10.331,-24.58 0,-9.619 3.443,-17.813 10.331,-24.581 6.769,-6.888 14.962,-10.331 24.581,-10.331 9.619,0 17.812,3.443 24.581,10.331 6.768,6.768 10.152,14.962 10.152,24.581 0,9.618 -3.384,17.812 -10.152,24.58 C 17.812,-3.384 9.619,0 0,0 m 0,-92.801 c -16.032,0 -29.747,5.638 -41.146,16.922 -11.283,11.399 -16.922,25.114 -16.922,41.146 0,16.03 5.639,29.685 16.922,40.967 11.399,11.4 25.114,17.1 41.146,17.1 16.03,0 29.685,-5.7 40.967,-17.1 11.4,-11.282 17.1,-24.937 17.1,-40.967 0,-8.078 -1.603,-15.853 -4.809,-23.334 l -0.178,-0.356 -0.178,-0.357 -41.324,-92.089 h -27.61 l 26.719,58.958 c -3.563,-0.594 -5.344,-0.89 -5.344,-0.89 z" />
          </g>
          <g
             transform="translate(1079.4302,1081.1332)"
             id="g3765">
            <path
               inkscape:connector-curvature="0"
               id="path3767"
               style="fill:#ffffff;fill-opacity:1;fill-rule:nonzero;stroke:none"
               d="m 0,0 -5.58,-5.436 c -2.544,2.621 -5.06,3.932 -7.546,3.932 -1.465,0 -2.655,-0.39 -3.57,-1.17 -0.917,-0.781 -1.374,-1.682 -1.374,-2.703 0,-0.868 0.404,-1.726 1.214,-2.574 0.791,-0.867 2.39,-1.792 4.8,-2.776 4.279,-1.773 7.209,-3.286 8.789,-4.539 1.58,-1.252 2.794,-2.756 3.643,-4.51 0.848,-1.755 1.272,-3.72 1.272,-5.898 0,-2.179 -0.453,-4.192 -1.358,-6.043 -0.907,-1.85 -2.073,-3.315 -3.499,-4.394 -1.427,-1.08 -3.479,-1.899 -6.159,-2.458 v -7.719 h -5.435 v 7.545 c -2.525,0.29 -4.675,0.926 -6.448,1.909 -2.428,1.349 -4.683,3.141 -6.765,5.377 l 5.493,5.638 c 3.528,-3.759 6.939,-5.638 10.236,-5.638 1.676,0 3.117,0.583 4.322,1.749 1.204,1.167 1.807,2.54 1.807,4.121 0,1.329 -0.386,2.495 -1.156,3.498 -0.792,1.002 -2.313,2.024 -4.569,3.064 -4.588,2.121 -7.69,3.802 -9.309,5.046 -1.619,1.243 -2.829,2.641 -3.628,4.192 -0.801,1.551 -1.201,3.205 -1.201,4.958 0,2.911 1.06,5.402 3.181,7.474 2.12,2.072 4.799,3.185 8.037,3.34 v 2.891 h 5.435 V 5.609 C -7.499,5.165 -5.912,4.567 -4.612,3.816 -3.311,3.065 -1.774,1.792 0,0" />
          </g>
          <g
             transform="translate(1028.5546,1192.5128)"
             id="g3769"
             style="fill:#ffffff;fill-opacity:1">
            <path
               inkscape:connector-curvature="0"
               id="path3771"
               style="fill:#ffffff;fill-opacity:1;fill-rule:nonzero;stroke:none"
               d="m 0,0 c -4.139,6.062 -9.036,11.415 -15.045,15.683 -7.285,5.176 -15.308,8.139 -24.344,8.113 -11.368,-0.032 -22.736,-0.023 -34.104,0.019 -2.212,0.008 -4.213,-0.325 -5.881,-1.933 -0.629,-0.607 -1.385,-1.132 -2.168,-1.522 -2.373,-1.18 -4.761,-1.337 -7.081,0.186 -0.594,0.389 -1.185,0.784 -1.77,1.187 -1.506,1.037 -3.164,1.572 -4.999,1.58 -4.085,0.018 -8.171,0.134 -12.254,0.053 -3.549,-0.071 -5.459,-2.041 -5.795,-5.663 -0.033,-0.353 -0.039,-0.709 -0.039,-1.064 -0.004,-3.73 0.013,-7.461 -0.012,-11.191 -0.01,-1.447 0.324,-2.806 0.784,-4.161 0.777,-2.288 2.326,-3.53 4.752,-3.532 4.795,-0.004 9.59,0.035 14.385,0.065 1.487,0.01 2.785,0.487 3.788,1.634 1.196,1.368 2.618,2.378 4.405,2.841 2.642,0.686 4.955,-0.151 6.524,-2.392 1.049,-1.497 1.596,-3.154 1.615,-4.987 0.024,-2.309 0.024,-4.618 0.105,-6.925 0.047,-1.317 0.695,-2.366 1.792,-3.11 0.568,-0.384 1.159,-0.735 1.802,-1.14 V -43.16 h 27.453 v 25.489 c 0.029,1.257 0.434,2.304 1.479,3.077 1.573,1.162 2.104,2.78 2.069,4.661 -0.02,1.065 0.008,2.131 0.014,3.197 0.011,1.954 -0.046,3.911 0.048,5.861 0.149,3.108 1.738,5.322 4.468,6.751 1.275,0.667 2.624,1.069 4.064,1.176 3.385,0.251 6.73,0.095 10.054,-0.681 9.193,-2.148 17.23,-6.488 24.31,-12.67 0.935,-0.816 1.792,-1.721 2.698,-2.572 0.258,-0.242 0.542,-0.466 0.846,-0.643 0.133,-0.077 0.42,-0.085 0.51,0.003 0.218,0.218 0.567,0.583 0.504,0.761 C 3.831,-5.547 1.896,-2.778 0,0" />
          </g>
          <g
             transform="translate(500.7033,1079.4692)"
             id="g3773"
             style="fill:#ffffff;fill-opacity:1">
            <path
               inkscape:connector-curvature="0"
               id="path3775"
               style="fill:#ffffff;fill-opacity:1;fill-rule:nonzero;stroke:none"
               d="m 0,0 c -10.304,0 -19.081,-3.626 -26.332,-10.876 -7.378,-7.251 -11.066,-16.028 -11.066,-26.332 h 49.801 v -24.996 h -49.801 v -99.412 h -24.806 v 124.408 c 0,17.173 6.04,31.8 18.127,43.886 C -31.865,18.89 -17.173,24.996 0,24.996 H 24.805 V 0 Z" />
          </g>
          <path
             inkscape:connector-curvature="0"
             id="path3777"
             style="fill:#ffffff;fill-opacity:1;fill-rule:nonzero;stroke:none"
             d="m 547.087,917.854 h 24.805 v 124.408 h -24.805 z m 24.614,149.403 c -3.309,-3.434 -7.379,-5.152 -12.211,-5.152 -4.836,0 -8.906,1.718 -12.212,5.152 -3.435,3.435 -5.152,7.504 -5.152,12.212 0,4.833 1.717,8.968 5.152,12.402 3.306,3.307 7.376,4.961 12.212,4.961 4.832,0 8.902,-1.654 12.211,-4.961 3.435,-3.434 5.152,-7.569 5.152,-12.402 0,-4.708 -1.717,-8.777 -5.152,-12.212" />
          <g
             transform="translate(716.3512,1042.2612)"
             id="g3779"
             style="fill:#ffffff;fill-opacity:1">
            <path
               inkscape:connector-curvature="0"
               id="path3781"
               style="fill:#ffffff;fill-opacity:1;fill-rule:nonzero;stroke:none"
               d="M 0,0 -47.13,-62.395 0,-124.408 h -30.72 l -31.484,41.978 -31.674,-41.978 h -30.53 l 47.13,62.013 L -124.408,0 h 29.767 L -62.204,-42.55 -29.957,0 Z" />
          </g>
          <path
             inkscape:connector-curvature="0"
             id="path3783"
             style="fill:#ffffff;fill-opacity:1;fill-rule:nonzero;stroke:none"
             d="m 736.212,917.854 h 24.805 v 124.408 h -24.805 z m 24.615,149.403 c -3.31,-3.434 -7.379,-5.152 -12.212,-5.152 -4.836,0 -8.906,1.718 -12.212,5.152 -3.435,3.435 -5.152,7.504 -5.152,12.212 0,4.833 1.717,8.968 5.152,12.402 3.306,3.307 7.376,4.961 12.212,4.961 4.833,0 8.902,-1.654 12.212,-4.961 3.434,-3.434 5.152,-7.569 5.152,-12.402 0,-4.708 -1.718,-8.777 -5.152,-12.212" />
          <g
             transform="translate(868.0782,942.6591)"
             id="g3785"
             style="fill:#ffffff;fill-opacity:1">
            <path
               inkscape:connector-curvature="0"
               id="path3787"
               style="fill:#ffffff;fill-opacity:1;fill-rule:nonzero;stroke:none"
               d="m 0,0 v -24.805 h -24.805 c -17.173,0 -31.866,6.04 -44.078,18.126 -12.086,12.212 -18.126,26.904 -18.126,44.077 V 174.02 h 24.805 V 99.602 h 49.801 V 74.606 H -62.204 V 37.398 c 0,-10.304 3.688,-19.081 11.067,-26.331 C -43.886,3.688 -35.109,0 -24.805,0 Z" />
          </g>
        </g>
      </g>
    </g>
  </g>
</svg>
